<svg width="208" height="66" viewBox="0 0 208 66" fill="none" xmlns="http://www.w3.org/2000/svg">
<path d="M89.1209 19.3431H94.0352V43.102H89.1209V33.3353H79.1121V43.102H74.1978V19.3431H79.1121V29.044H89.1209V19.3431ZM107.304 43.4308C105.513 43.4308 103.924 43.0855 102.537 42.395C101.15 41.7044 100.058 40.6904 99.2608 39.3532C98.4744 38.0159 98.0813 36.443 98.0813 34.6343C98.0813 31.9268 98.9331 29.7894 100.637 28.2218C102.34 26.6544 104.563 25.8706 107.304 25.8706C110.056 25.8706 112.284 26.6544 113.987 28.2218C115.691 29.7894 116.543 31.9268 116.543 34.6343C116.543 37.3527 115.691 39.5012 113.987 41.0796C112.284 42.6471 110.056 43.4308 107.304 43.4308ZM107.255 39.6655C108.631 39.6655 109.739 39.2052 110.58 38.2844C111.432 37.3636 111.858 36.1469 111.858 34.6343C111.858 33.1216 111.432 31.9049 110.58 30.9841C109.739 30.0633 108.631 29.603 107.255 29.603C105.933 29.603 104.852 30.0689 104.011 31.0005C103.181 31.9213 102.766 33.1326 102.766 34.6343C102.766 36.136 103.181 37.3527 104.011 38.2844C104.852 39.2052 105.933 39.6655 107.255 39.6655ZM131.22 26.1995H135.938V43.102H131.466L131.351 41.0631C130.106 42.6416 128.321 43.4308 125.995 43.4308C123.974 43.4308 122.424 42.9266 121.342 41.9182C120.261 40.8988 119.721 39.4518 119.721 37.5774V26.1995H124.455V36.558C124.455 37.6104 124.733 38.3831 125.29 38.8764C125.858 39.3696 126.59 39.6162 127.485 39.6162C128.577 39.6162 129.467 39.2984 130.155 38.6626C130.854 38.0159 131.209 36.9691 131.22 35.5222V26.1995ZM153.122 26.1995L145.717 39.4518H152.892V43.102H139.018L146.389 29.8496H139.591V26.1995H153.122ZM158.772 23.6674C158.02 23.6674 157.375 23.4043 156.84 22.8782C156.305 22.3411 156.038 21.6943 156.038 20.938C156.038 20.1926 156.305 19.5568 156.84 19.0307C157.386 18.4935 158.03 18.2251 158.772 18.2251C159.505 18.2251 160.139 18.4935 160.674 19.0307C161.208 19.5568 161.476 20.1926 161.476 20.938C161.476 21.6943 161.208 22.3411 160.674 22.8782C160.139 23.4043 159.505 23.6674 158.772 23.6674ZM156.365 43.102V26.1995H161.115V43.102H156.365ZM175.94 25.8706C177.961 25.8706 179.512 26.3803 180.592 27.3998C181.674 28.4082 182.215 29.8496 182.215 31.724V43.102H177.48V32.7435C177.48 31.6802 177.196 30.9019 176.628 30.4087C176.071 29.9154 175.351 29.6688 174.466 29.6688C173.952 29.6688 173.483 29.7401 173.057 29.8824C172.632 30.025 172.239 30.2498 171.878 30.5566C171.518 30.8526 171.234 31.2746 171.026 31.8227C170.83 32.3708 170.726 33.023 170.714 33.7793V43.102H165.997V26.1995H170.714V28.0739C171.96 26.6051 173.701 25.8706 175.94 25.8706ZM198.398 26.1995H202.887V41.836C202.887 43.4472 202.674 44.8503 202.248 46.0452C201.834 47.2399 201.227 48.1991 200.43 48.9225C199.633 49.6569 198.699 50.1995 197.63 50.5503C196.559 50.901 195.336 51.0764 193.959 51.0764C189.515 51.0764 186.62 49.3281 185.277 45.8314L189.193 44.1542C189.673 45.2614 190.28 46.078 191.011 46.6042C191.742 47.1303 192.666 47.3933 193.78 47.3933C196.696 47.3933 198.153 45.656 198.153 42.1812V40.2082C197.651 40.8988 196.941 41.4578 196.023 41.8853C195.117 42.3018 194.123 42.51 193.043 42.51C192.004 42.51 191.016 42.3128 190.077 41.9182C189.148 41.5126 188.335 40.9535 187.636 40.2411C186.937 39.5176 186.38 38.6297 185.965 37.5774C185.561 36.5251 185.36 35.3851 185.36 34.1575C185.36 32.9189 185.561 31.7788 185.965 30.7375C186.38 29.6853 186.937 28.8083 187.636 28.1068C188.346 27.4053 189.166 26.8572 190.093 26.4626C191.033 26.0679 192.027 25.8706 193.075 25.8706C194.233 25.8706 195.27 26.1063 196.187 26.5776C197.116 27.038 197.815 27.6573 198.284 28.4356L198.398 26.1995ZM191.159 37.3802C191.999 38.2461 193.031 38.679 194.255 38.679C195.477 38.679 196.509 38.2406 197.35 37.3636C198.192 36.4868 198.612 35.418 198.612 34.1575C198.612 32.886 198.192 31.8117 197.35 30.9348C196.521 30.058 195.489 29.6194 194.255 29.6194C193.009 29.6194 191.972 30.0524 191.143 30.9184C190.323 31.7734 189.913 32.8531 189.913 34.1575C189.913 35.4399 190.328 36.5141 191.159 37.3802Z" fill="#0061E0"/>
<path d="M12.9337 31.8516V18.7526L26.8399 10.7289C31.4803 13.4035 36.1107 16.078 40.7461 18.7526V39.0381H15.8073H2.88617C2.41399 37.9621 1.93168 36.9014 1.54074 35.8C-0.0636231 31.2781 -0.413942 26.4162 0.484704 21.7419C1.4595 16.6465 3.9219 11.7896 7.86172 7.85633C13.1064 2.61877 19.9756 0 26.8399 0C33.7143 0 40.5836 2.61877 45.8181 7.85633C51.0577 13.099 53.6774 19.9657 53.6774 26.8272C53.6774 33.6939 51.0577 40.5656 45.8181 45.7981L26.8399 64.769L7.86172 45.8032C7.05955 45.0014 6.29797 44.1385 5.60242 43.2402H11.2329L26.8399 58.8463L42.8581 42.8343C47.2752 38.4189 49.4888 32.618 49.4888 26.8272C49.4888 21.0365 47.2752 15.2406 42.8581 10.8202C38.436 6.39469 32.6329 4.187 26.8399 4.187C21.0469 4.187 15.249 6.39976 10.8267 10.8151C7.49617 14.1445 5.42472 18.235 4.60222 22.5184C3.8102 26.6191 4.1656 30.8873 5.65318 34.8357H36.5524V21.1583C33.3082 19.2856 30.074 17.4179 26.8399 15.5503L17.1325 21.1583V31.8617H12.9337V31.8516Z" fill="#0061E0"/>
</svg>
